<?xml version="1.0" encoding="utf-8" ?>
<svg baseProfile="full" height="512px" version="1.1" width="512px" xmlns="http://www.w3.org/2000/svg" xmlns:ev="http://www.w3.org/2001/xml-events" xmlns:xlink="http://www.w3.org/1999/xlink"><defs /><rect fill="#e6e6ff" height="100%" width="100%" x="0" y="0" /><polyline clip-path="url(#border_clip)" fill="none" points="289.4004935470872,306.1912125422472 295.1101695552604,318.4415237372328 299.68235598216006,330.0232254604717 303.0868620840869,340.7105463679068 305.32118631453034,350.2901283183444 306.4098554612938,358.5654775237277 306.4031599656237,365.36112105509505 305.37532024933034,370.5263794435425 303.4221313416965,373.9386737352873 300.65814446078815,375.5062947518351 297.21345421621595,375.1705732732763 293.2301685452028,372.9074021735689 288.85864518858796,368.72807493065307 284.2535833145373,362.6794191269769 279.570061703544,354.843218245469 274.9596156611933,345.33492993901655 270.5664435128384,334.301723690563 266.52383019005106,321.9198750709923 262.9508701204776,308.39156733722086 259.9495645015978,293.94116360348914 257.6023592362002,278.8110239969685 255.97017953128184,263.2569518346378 255.09100564303435,247.5433607252252 254.97902174638108,231.9382604387057 255.62435669757286,216.70816326850598 256.99342183748513,202.11301435430434 259.0298372553026,188.40124899807964 261.6559244033321,175.8050774014672 264.77472992539214,164.536092533614 268.27253332414404,154.78129010598497 272.02177991993176,146.69958102748717 275.88437069475054,140.41886642342433 279.7152322904716,136.0337335448283 283.3660838271308,133.60381792165208 286.68931247372427,133.15286320108322 289.54186694804076,134.66849555775968 291.78907740746877,138.10271467639336 293.3083115382391,143.37308840656246 293.9923800294755,150.36462359156417 293.7526099590578,158.93227158876533 292.5215118055518,168.90401392488488 290.2549746783192,180.08446164323527 286.9339347328354,192.2588914524394" stroke="black" stroke-linecap="round" stroke-width="1" /><polyline clip-path="url(#border_clip)" fill="none" points="286.9339347328354,192.2588914524394 282.5654733833603,205.19763299757756 277.18331458518287,218.66071462920235 270.8477038556859,232.40267008738851 263.64466554269177,246.17740564819576 255.68464882494862,259.7430265547567 247.10058673457385,272.86652298453555 238.0454058193459,285.3282193516057 228.68903661832934,296.9258963259617 219.2149866281984,307.47850244509107 209.81654763303308,316.8293814295017 200.6927179286888,324.8489520895769 192.0439268986476,331.43678978914727 184.06765443361837,336.52307154702066 176.95404071514832,340.0693607250528 170.88158283085028,342.0687215681814 166.01301352755442,342.54516831718354 162.4914541567527,341.5524678954353 160.43692858778022,339.1723289678891 159.94331766627366,335.5120231862802 161.07582482863984,330.7014963893563 163.86901293649868,324.89003816453857 168.32546049208827,318.24258727099345 174.41507239020484,310.93575778088245 182.07506653268615,303.1536762611421 191.2106432745656,295.08372377969476 201.6963300957505,286.91227790867174 213.37797941276523,278.82054918964684 226.07538337470356,270.9806037444939 239.58545613083336,263.55165892808316 253.68592170425686,256.676732237159 268.1394345255296,250.47971526620415 282.69805011408573,245.06293452656382 297.1079555533962,240.5052496438875 311.1143634608752,236.86072707404372 324.4664692379336,234.15791430518175 336.9223695880476,232.39972583669316 348.2538406545798,231.5639383481961 358.250876652231,231.60427870097365 366.72589449684904,232.45207505535848 373.51751658290203,234.01842873566665 378.4938523778772,236.19685280874927 381.55520971936926,238.8663129202503" stroke="black" stroke-linecap="round" stroke-width="1" /><polyline clip-path="url(#border_clip)" fill="none" points="381.55520971936926,238.8663129202503 382.63617839824053,241.8945969836907 381.7070415425228,245.14193303824376 378.7744842075609,248.46476914116423 373.8815831333342,251.71962565938026 367.107076540566,254.76692884770605 358.56392778595813,257.4747351796419 348.3972113655389,259.7222585164988 336.78136383144437,261.40311680218167 323.91685537182,262.4282214511391 310.02634981538074,262.728240810953 295.3504314060372,262.2555788456639 280.1429856240479,260.98582128375034 264.66632841898524,258.91861365871773 249.18618331654366,256.07794866939446 233.96660885872313,252.51185381204408 219.26497967309274,248.29148398623607 205.327123125922,243.50963744486637 192.38271002688032,238.27872674113792 180.64099229664913,232.72824892531276 170.2869730043596,227.00181088003487 161.4780848921191,221.25377609439067 154.34144262998797,215.645608129746 148.97172182134344,210.34199332279766 145.4297044690116,205.50683073759495 143.7415165032128,201.2991808929393 143.89856836636787,197.86926627182763 145.85819486046847,195.35461602741816 149.54497580677724,193.87644464291589 154.8527048584298,193.5363496338174 161.6469603472263,194.4134067975069 169.7682196229795,196.56173315693792 179.03544722080068,200.00857779103552 189.25007760367964,204.75298940889718 200.2003053760789,210.76509705302885 211.66558991254118,217.98602697934726 223.42127741564056,226.32846484871556 235.24324158814656,235.67785817981905 246.91244440758342,245.89423986634912 258.21932091376686,256.8146397627433 268.96789640184573,268.25603819525725 278.97955085080787,280.01880304853273 288.0963536641012,291.89054108184916" stroke="black" stroke-linecap="round" stroke-width="1" /><polyline clip-path="url(#border_clip)" fill="none" points="288.0963536641012,291.89054108184916 296.18390166980845,303.6502845879295 303.1336046026929,315.07292663340996 308.86437471938547,325.93381209100113 313.32369050648424,336.01338762634407 316.488018336346,345.10181183224915 318.36259010174234,353.003426859137 318.9805490077771,359.5409951767853 318.40148950831895,364.5596094764509 316.70943054359634,367.9301900962466 314.01027347907996,369.5524925949999 310.4288071977882,369.3575580386529 306.1053324197878,367.3095499895052 301.1919853068708,363.4069348605893 295.84884658642636,357.68297594618133 290.2399266656735,350.20552577424905 284.5291194177581,341.0761161415842 278.8762174615318,330.42835997275836 273.4330798294722,318.4256936732603 268.3400389710037,305.25850261348893 263.72262816364577,291.1406854836064 259.6887027364537,276.30572521764583 256.3260192229539,261.00234474100273 253.70032586348003,245.48983472061792 251.85400600961296,230.03314759865378 250.80530321194584,214.89785731408597 250.54814338197792,200.34508715050566 251.05255570829033,186.6265090254209 252.26568028183095,173.97951623553885 254.11333695076632,162.62266821967756 256.5021170809759,152.7515003680219 259.3219479296936,144.53478440994778 262.4490685133964,138.11131561126223 265.74934640781714,133.58729210282783 269.08185706830614,131.03433937800833 272.3026411778094,130.48821959752416 275.26855135348524,131.94825111232146 277.8410973653463,135.37744886083 279.89019889101183,140.70338133059454 281.29775675411435,147.81972491420458 281.96095752915005,156.58848205178032 281.79523225710886,166.84281584381287 280.73679767590784,178.39044112986787" stroke="black" stroke-linecap="round" stroke-width="1" /><polyline clip-path="url(#border_clip)" fill="none" points="280.73679767590784,178.39044112986787 278.74471765947044,191.01750062940735 275.80243327502995,204.49284487173827 271.91872177394004,218.57262651077548 267.1280576644467,233.00511339731642 261.49036249216886,247.53562059610834 255.0901437775094,261.91145947248486 248.03503742283542,275.8868020733876 240.45378149862356,289.2273612832794 232.49366234482972,301.71479159359427 224.3174860914917,313.1507216866146 216.10013973936816,323.3603382597547 208.02481559999023,332.195450423025 200.2789809573967,339.53697537395675 193.05018109820884,345.296798642335 186.5217682184199,349.41897572782784 180.8686510520584,351.880256133353 176.25316032064424,352.68992531872624 172.82112326053365,351.8889746490082 170.69823658113975,349.54862367629596 169.9868213191308,345.76823276566273 170.76303530412534,340.67265686222595 173.074609503158,334.40910282345567 176.93916356480483,327.14356296114556 182.34314367301167,319.05690603435056 189.2414126071653,310.3407137272221 197.55750797305734,301.1929554928276 207.18457021969022,291.8135974471514 217.98692759974196,282.40024170267856 229.80231098037646,273.14389113020025 242.44465767564338,264.2249310686215 255.70745055116421,255.8094140484684 269.3675268283456,248.04572628150123 283.18928054806037,241.06170566268855 296.92917377283095,234.96227053474553 310.3404645084557,229.8276067146155 323.17805416899034,225.71194753774833 335.2033543096767,222.6429682230733 346.18907138321026,220.6218019974258 355.9238094622588,219.62367144952321 364.21639419548706,219.59911481877353 370.8998266595387,220.47577366654704 375.83478312476734,222.16069591867415" stroke="black" stroke-linecap="round" stroke-width="1" /><polyline clip-path="url(#border_clip)" fill="none" points="375.83478312476734,222.16069591867415 378.9125859149053,224.543096881405 380.05758131810694,227.49751076838322 379.2288726716845,230.8872567533638 376.42137003801577,234.56813676816532 371.66613203257634,238.3922773450741 365.0299900563214,242.21202486346405 356.6144601111265,245.88380266377635 346.5539622207341,249.2718396550804 335.01338192421906,252.2516832365664 322.18502204624644,254.71341450502013 308.28500568520144,256.56449071291 293.5492028247546,257.7321486178667 278.2287629218676,258.165312529606 262.5853440423541,257.8359622874218 246.88613542860975,256.7399288351026 231.39877465851296,254.89709822311244 216.38626269896247,252.35101846660461 202.10198012688326,249.16791741912414 188.78490558623054,245.43515337951843 176.65513321954697,241.25913323116947 165.90977945050673,236.76274522613988 156.71936123662036,232.08236479696103 149.22471793642268,227.36450175324998 143.534537457248,222.76216567522934 139.7235346143861,218.43103306104302 137.83131591302,214.52550466660773 137.86195055469676,211.19474438370418 139.78425267848795,208.57879186566117 143.53276498959275,206.8048399069087 149.00941932205143,205.9837643350416 156.08583563876962,206.2069889491432 164.60620778994638,207.54376094697574 174.39071231001827,210.03890347857012 185.23936588814274,213.71110163508612 196.93624812234242,218.55176655379114 209.25399895173842,224.52450964587598 221.95849490451332,231.56524551033561 234.81360510856143,239.58292817851287 247.58592694964653,248.46091124541212 260.049402344669,258.0589084951863 271.9897187953978,268.2155181265639 283.20840462515855,278.7512609275682" stroke="black" stroke-linecap="round" stroke-width="1" /><polyline clip-path="url(#border_clip)" fill="none" points="283.20840462515855,278.7512609275682 293.5265349579841,289.4720710202144 302.7879739158648,300.17316735562673 310.8620889864903,310.64322522131613 317.64588531942496,320.6687598256153 323.0655205828964,330.03862871276857 327.07717467362085,338.5485564584736 329.66726271926495,346.00558387883694 330.851994138298,352.2323448895264 330.67629471303155,357.0710771641013 329.21212238014743,360.3872778028972 326.5562204509095,362.07292223356706 322.8273639593214,362.0491733760425 318.1631655424422,360.2685185334288 312.71651645316535,356.71628329588117 306.65174579576643,351.4114847157431 300.14058669992187,344.4069998527349 293.3580417923456,335.78904020194045 286.47824191295837,325.6759371959089 279.6703915260809,314.21625860019844 273.0948917137548,301.5862898844306 266.899727070496,287.9869282409953 261.2171963530041,273.6400495474804 256.1610585225219,258.7844199535485 251.82415603780487,243.67123367144615 248.27656613324143,228.559366746295 245.56431859900567,213.7104428987859 243.70870554138173,199.38381183004407 242.70619503242432,185.83154256067934 242.5289467610686,173.293534393109 243.12591407947514,161.99284593433796 244.4245035035092,152.1313383382528 246.33275007073945,143.88572261056856 248.7419552638532,137.40409259809084 251.52972373113252,132.80301533012855 254.56332601070793,130.1652389041818 257.70330709156275,129.5380653536455 260.807255084966,130.93242217293871 263.7336406582405,134.32265169760802 266.3456362787152,139.6470226513794 268.5148247649202,146.80895319543137 270.12470913467945,155.67892006588056 271.0739402206631,166.09701417724818" stroke="black" stroke-linecap="round" stroke-width="1" /><polyline clip-path="url(#border_clip)" fill="none" points="271.0739402206631,166.09701417724818 271.2791848940963,177.87608970450097 270.67756585577223,190.80544141796418 269.22861364063857,204.654934193557 266.9156825235686,219.17949938513223 263.7467941649474,234.12390532115884 259.7548858261236,249.22770373056088 254.99745352849737,264.2302505259056 249.55559432544027,278.87569814528945 243.53246559686647,292.917857599987 237.0511926564424,306.1248314693629 230.25226868300837,318.28332425776915 223.2905027667971,329.20254366568895 216.33158243381854,338.71761527276317 209.54832614087033,346.69244368842897 203.1167087129695,353.0219651672687 197.21174835449307,357.6337497519704 192.00334757462554,360.48892491447447 187.6521820391518,361.58240711522956 184.30573095114835,360.9424423802178 182.0945400752986,358.62947158987345 181.12880400261207,354.734350370024 181.4953477971398,349.375966968587 183.25507990941443,342.6983140048035 186.44097835814705,334.86708122417474 191.05666088355088,326.06584614361196 197.07557730533551,316.49194752211935 204.44084894493847,306.352132774399 213.06576598429808,295.8580746307522 222.83493933588468,285.2218544527812 233.60608930173595,274.6515096022339 245.2124393145646,264.3467401375011 257.465669687225,254.49486593227132 270.1593738408263,245.2671191717435 283.0729482103201,236.81534922409833 295.9758371881329,229.26920728838698 308.63204627945856,222.73386719968664 320.80483028994945,217.28832657390507 332.26145899115306,212.9843193687656 342.7779604120149,209.84585721424693 352.1437417422002,207.86940282790744 360.16598981490256,207.0246647871395 366.67375722689184,207.255989189964" stroke="black" stroke-linecap="round" stroke-width="1" /><polyline clip-path="url(#border_clip)" fill="none" points="366.67375722689184,207.255989189964 371.52164626984376,208.48431059970162 374.5930108636485,210.60961242408578 375.80260643228144,213.51383579332813 375.09862894116293,217.0641663155633 372.46409688362615,221.11662001204195 367.9175435968765,225.51984344268746 361.5130016158967,230.1190386599231 353.3392755321208,234.7599212672854 343.5185146976635,239.29261955711286 332.204111787853,243.5754244609294 319.5779673911098,247.47830382398087 305.84717413292054,250.88610022420232 291.24018607408436,253.7013390656633 276.00254999032245,255.84658281760014 260.39228440759086,257.2662778369747 244.67499973600792,257.9280519682403 229.11885835464247,257.8234337956907 213.98947693085233,256.9679777481399 199.54487453725625,255.40079292538226 186.03056922869968,253.1834872260339 173.6749226793798,250.39855180126185 162.6848273215828,247.14722373876526 153.24182328213126,243.54687690889693 145.49872343305972,239.7280018115267 139.5768142509177,235.83084480441877 135.56368814125415,232.0017850578827 133.51174968830983,228.38953378743903 133.43742421647735,225.14124462614717 135.32108240003137,222.39862631285826 139.1076797434759,220.29414913780712 144.7080948944882,218.94743479371635 152.00113626129803,218.46191546551347 160.83617259459254,218.92184223611963 171.03633035394802,220.38971531377962 182.40218908240766,222.90419936255506 194.71589590514316,226.47857654306836 207.74561186183195,231.099777978847 221.2501962532467,236.7280215153657 234.984030665771,243.29707011633317 248.70188192478744,250.71511134248163 262.16370296538474,258.86624438850663 275.1392724964618,267.6125474224078" stroke="black" stroke-linecap="round" stroke-width="1" /><polyline clip-path="url(#border_clip)" fill="none" points="275.1392724964618,267.6125474224078 287.4125783256339,276.7966847822287 298.7858552156758,286.2450012307131 309.08319602368056,295.7710392236062 318.1536644565493,305.1794052633974 325.8738488493611,314.26990310910264 332.14980869336205,322.8418450819049 336.9183789380792,330.6984480954799 340.1478110771975,337.6512184563036 341.8377443958908,343.5242289868061 342.01851519623443,348.1581936409626 340.74982601430634,351.4142484798845 338.11881049073725,353.17735358079625 334.2375423615793,353.35923804911846 329.2400487232186,351.9008196314404 323.27889804342817,348.7740412900938 316.52144212067793,343.98307926713625 309.14579815074643,337.5648903772383 301.33666209784496,329.5890802423777 293.28104758340004,320.1570886163432 285.1640454402544,309.4007025331225 277.1646979198634,297.479922435611 269.452078317421,284.5802203879223 262.1816615721617,270.90924264372984 255.49206432803913,256.6930209485208 249.50222416488697,242.17176773182936 244.30907743032608,227.5953395610033 239.98578354903188,213.21846067868867 236.58053111697743,199.29580396754443 234.11594778421406,186.07703015456053 232.589122186595,173.801887404599 231.97223230970826,162.69547262502678 232.21376096473045,152.96375282371486 233.24026582923042,144.78943979068939 234.95865904847759,138.32830431385324 237.25893997953915,133.70600723879704 240.01731454300133,131.0155141288461 243.09962604826347,130.31514829688487 246.36501546701498,131.62732381882995 249.6697240968183,134.93798607901397 252.8709484926005,140.19677273879338 255.83065651464125,147.3178930730368 258.4192743686526,156.18170870276128" stroke="black" stroke-linecap="round" stroke-width="1" /><polyline clip-path="url(#border_clip)" fill="none" points="258.4192743686526,156.18170870276128 260.51915757261713,166.63698418351095 262.0277638071012,178.50376199822546 262.86045247830003,191.57680354639393 262.95284439269085,205.62952599390388 262.2626850179191,220.41835459949104 260.77116616211777,235.687401581696 258.4836732905569,251.17337591594693 255.4299388387674,266.61062379575753 251.66359548271345,281.73619695267047 247.26113708645968,296.2948456587164 242.3203086596333,310.0438350385141 236.95795981737535,322.7574872548224 231.30740865067466,334.23135811478187 225.51537430739728,344.2859645438615 219.73854669866824,352.76998901929414 214.13987035413447,359.56289823594136 208.88462635857718,364.5769257537547 204.1364013541118,367.7583818784982 200.0530356703099,369.08826826569293 196.7826436758083,368.58218940601097 194.45979840113372,366.2895679339746 193.20196938100463,362.2921852842643 193.10629756804204,356.7020832895148 194.24678418540083,349.6588755701268 196.67196166180594,341.3265297283324 200.40310451587055,331.88969216768675 205.43302644887896,321.5496365871469 211.72549721762613,310.51992465237436 219.2152993668341,299.0218728710052 227.80893089778047,287.27992318054055 237.38594574159058,275.5170161288033 247.80090980288264,263.95006476496457 258.88593665125,252.78562448760735 270.45375396522314,242.2158491844452 282.3012398617825,232.41481715951275 294.2133575389288,223.53530173280566 305.96740745703516,215.70605120748888 317.337508792295,209.02963135779885 328.09921628140233,203.5808709523842 338.034174969088,199.40593737206933 346.93471385439216,196.52205540403645 354.6082800474742,194.91786810302546" stroke="black" stroke-linecap="round" stroke-width="1" /><polyline clip-path="url(#border_clip)" fill="none" points="354.6082800474742,194.91786810302546 360.8816177900728,194.55442451513093 365.60460150706444,195.36676536909374 368.653638846526,197.26606485207716 369.9345682909104,200.14227458417466 369.38498620200403,203.86720514854932 366.9759498807199,208.29797125453666 362.7130161314492,213.28071900878317 356.636588645415,218.6545480068733 348.8215619637539,224.25553715656375 339.3762645404379,229.92078138204266 328.44071818193834,235.4923466699497 316.1842455785262,240.82105328997469 302.8024714514882,245.77000139813626 288.51377572455687,250.21775950775006 273.55526880923986,254.06114434832915 258.1783693207046,257.2175302443728 242.64407309259664,259.62663711782636 227.2180090505335,261.2517583038378 212.16538218966866,262.08040229888695 197.74590647922057,262.12433604466355 184.20883092890656,261.4190310894721 171.7881602879205,260.0225276553255 160.69816794221288,258.01374496849115 151.12929261204584,255.49027888737447 143.24450255494455,252.5657396021523 137.1762013165527,249.36669272416708 133.0237378487002,246.02927619497683 130.85157126883058,242.6955729220106 130.68812693476366,239.5098247230804 132.52536614310307,236.61457690843667 136.31907693428408,234.14684456217486 141.98987851789514,232.23439126464905 149.42491703703269,230.9922086295746 158.48021608469708,230.51928066444756 168.9836318725456,230.8957106957211 180.73835051940506,232.18028056793105 193.52685383712844,234.40850220487795 207.11527047892952,237.59121062256878 221.25802158043433,241.71373535007803 235.70266422817124,246.7356742133712 250.19483235407665,252.5912798555039 264.4831730534499,259.19045550477335" stroke="black" stroke-linecap="round" stroke-width="1" /><polyline clip-path="url(#border_clip)" fill="none" points="264.4831730534499,259.19045550477335 278.3241768872976,266.42034266728297 291.486803441275,274.14746991884226 303.75680820941227,282.22041910317716 314.94068364373476,290.47295329568345 324.86913581062663,298.727540131296 333.4000283321616,306.79919476276694 340.4207369415311,314.4995590221095 345.8498707920138,321.64112747797844 349.63833035001664,328.0415271506765 351.76968597753137,333.5277557571797 352.2598758588506,337.94028355940054 351.1562364362842,341.1369261824843 348.53589267715796,342.99640011309845 344.5035489951412,343.4214788923098 339.188734203433,342.3416761525468 332.74256521720196,339.7153914418327 325.3341041065484,335.5314660228269 317.1463913199331,329.8101082890017 308.3722442789329,322.60316183829644 299.2099149561409,313.99370329747177 289.8587023999715,304.09497139481925 280.51461641904336,293.04864322321316 271.3661867865861,281.0224878064595 262.5905084196405,268.20744067146586 254.34960712107997,254.81415584080307 246.78720277965337,241.0691032169787 240.02593757891333,227.21028947786715 234.16512598034876,213.4826891188252 229.27907126065975,200.1334789725281 225.41598046502767,187.40717426288765 222.59749607445602,175.5407668972571 220.81884877637435,164.75896720880812 220.049621781275,155.26964871188162 220.2351034519956,147.25959165713334 221.2981919076682,140.8906153461792 223.14180301953309,136.2961814072568 225.6517220995615,133.5785407059821 228.699829838681,132.8064854687223 232.14762489228437,134.01375576458273 235.84995911434382,137.19813598867023 239.6588969464491,142.3212627006523 243.42760797093987,149.30915040236937" stroke="black" stroke-linecap="round" stroke-width="1" /><polyline clip-path="url(#border_clip)" fill="none" points="243.42760797093987,149.30915040236937 247.0142011903091,158.05342690071703 250.28541120519458,168.4132551154152 253.12005009209648,180.21790387086733 255.41214434642862,193.26991666255364 257.07368363088494,207.3488149004171 258.0369170876893,222.2152609710044 258.25614343413076,237.6155968649048 257.70895273006806,253.28666629098785 256.3968903233391,268.96082231089287 254.3455267628165,284.3710187014979 251.6039311230271,299.25588157083484 248.24355890439736,313.3646582493347 244.356579153344,326.46194314191445 240.05367838584732,338.33208499935364 235.4613910078735,348.78318684659837 230.71901693528824,357.6506184450726 225.9751967780891,364.799971480008 221.3842230518258,370.12939943070955 217.1021722302895,373.57129704907675 213.28294691365141,375.0932882616331 210.07431985255153,374.6985058252998 207.6140719824037,372.4251608966649 206.02631496985555,368.3454155016324 205.41808508694507,362.5635854006783 205.87628958496674,355.21371472536373 207.4650792596113,346.4565767190963 210.2237117424572,336.4761666745462 214.16495941945732,325.4757634729885 219.27410399566406,313.6736447800986 225.50854685593035,301.2985477575289 232.79805079481216,288.5849719691678 241.04561470259355,275.76842389762214 250.12896870509522,263.08070308758727 259.90266337247414,250.74532839197508 270.200713242492,238.97319915384884 280.8397423420899,227.95858049756018 291.6225679159152,217.87549435464223 302.3421484369292,208.87458858318183 312.7858134088832,201.08054575960722 322.73968566606027,194.59008116743667 331.9932019870322,189.4705664439668 340.3436349796624,185.75930155984418" stroke="black" stroke-linecap="round" stroke-width="1" /><polyline clip-path="url(#border_clip)" fill="none" points="340.3436349796624,185.75930155984418 347.60051843360856,183.46344359968091 353.5898796980445,182.56058649449693 358.15818610397673,182.99997174061875 361.1759179444207,184.70429653143813 362.54068793955076,187.5720729230556 362.17983629352443,191.48047992901937 360.0524412021266,196.2886400456508 356.1506967682847,201.84124287068278 350.500623468803,207.9724313825055 343.1620903091986,214.5098612450542 334.2281423050621,221.2788403023645 323.82364162709325,228.10645429108567 312.10324532719767,234.82558574741017 299.24875671099403,241.27873608983185 285.46590083281393,247.32156584869716 270.9805869730876,252.82607487201517 256.03473204690346,257.6833529079461 240.88172844592938,261.80584105391404 225.78164762590347,265.12905594341964 210.99627664785487,267.61274095932333 196.78408873333768,269.24142193913485 183.39525061625932,270.0243584798533 171.06676902601038,269.9948957534493 160.01787602478217,269.2092354022686 150.4457481988718,267.744657293108 142.52164796746231,265.6972363763417 136.38756666414386,263.17911034574934 132.1534387478678,260.3153639718492 129.89498472901857,257.24060466107915 129.6522274024404,254.0953107828209 131.42871203846516,251.02203945123483 135.1914465915313,248.1615836351876 140.8715630541294,245.649169626596 148.36568612914755,243.61078499956017 157.53798073428385,242.15972425944932 168.2228357997421,241.39343447740458 180.2281286735501,241.39073643991506 193.33900248664648,242.2094883648162 207.32207830597787,243.88474923182608 221.93001504086737,246.42748746898658 236.9063230527613,249.82386837651217 251.9903323982695,254.03514053046683" stroke="black" stroke-linecap="round" stroke-width="1" /><polyline clip-path="url(#border_clip)" fill="none" points="251.9903323982695,254.03514053046683 266.92221371444055,258.9981277817662 281.44794899258005,264.6263196537079 295.3241508954005,270.8115392504886 308.32263281805643,277.4261545245862 320.2346374970079,284.3257862081124 330.87463950793585,291.3524541724008 340.0836463000094,298.33809369967366 347.7319332858273,305.1083643617314 353.7211607081276,311.48666710189656 357.985833271481,317.2982798696894 360.4940775728025,322.3745188842702 361.24772688552525,326.55683138070424 360.281717535923,329.70072655583317 357.6628156406832,331.67945436546177 353.48770704069995,332.38734677369075 347.880496566136,331.7427429162057 340.98967501822415,329.6904282677085 332.98462319347857,326.2035281159331 324.051731674307,321.2848072222197 314.39022276868593,314.9673402424486 304.20776674093446,307.3145310182949 293.7159882175833,298.41947293425056 283.1259603027858,288.4036568649809 272.6437834681316,277.41504749860667 262.46634370968593,265.62556270344436 252.77733985382727,253.22800380512763 243.74366335043587,240.43249686853625 235.51220556645094,227.46251606570047 228.20715767247523,214.55056971427453 221.92785692203458,201.93363738038508 216.74722070877664,189.84845238003263 212.71079652672526,178.52672795024972 209.83644214594804,168.1904272035028 208.1146362553388,159.04717668011028 207.5094058251122,151.28592087370401 207.95984281149674,145.07291057023104 209.3821698637077,140.5481113032741 211.67230268204565,137.82210982257118 214.7088458779338,136.9735863741164 218.35644983676534,138.0474090115008 222.46944838522086,141.05339334384826 226.89569118222258,145.96575734747057" stroke="black" stroke-linecap="round" stroke-width="1" /><polyline clip-path="url(#border_clip)" fill="none" points="226.89569118222258,145.96575734747057 231.48048081264847,152.72328641903022 236.07052264811063,161.23020903524892 240.51779568754372,171.3577685239716 244.68325479456098,182.94646186103927 248.4402789557068,195.8089023988935 251.67778629693203,209.73325030590945 254.30294447594667,224.48714253130908 256.2434145377895,239.82204356560416 257.4490771672784,255.47792936708936 257.89320225199356,271.18820976204466 257.5730355152306,286.68478955184656 256.50978940308516,301.70316558340704 254.74803911395384,315.98745622462627 252.35453833663,329.2952610519093 249.41648260986304,341.40225207359947 246.03926093409123,352.10640340667084 242.3437480713211,361.23177387495156 238.46320059821886,368.63176634436775 234.53982899275388,374.1917985545979 230.72112562972958,377.831332513377 227.156034364522,379.5052229266594 223.9910512660958,379.20435935868477 221.36634793106592,376.9555915471934 219.412008625786,372.8209422263984 218.2444702641337,366.89612661570845 217.96324998118007,359.3084121004 218.6480388980507,350.2138652559659 220.35623272423152,339.7940459615272 223.12096028313647,328.2522196427927 226.9496600835324,315.80916844315607 231.82324293327127,302.69869013753987 237.6958655685949,289.1628797102057 244.4953266381698,275.44729258893256 252.1240824360543,261.7960904817035 260.4608658294876,248.4472705620264 269.36287818387365,235.62807640538455 278.6685110506989,223.55068464836114 288.2005422437391,212.40825492489202 297.7697399551001,202.37142237468657 307.178799000706,193.58530210040288 316.22652534971337,186.167063591381 324.7121789637331,180.20412058200742" stroke="black" stroke-linecap="round" stroke-width="1" /><polyline clip-path="url(#border_clip)" fill="none" points="324.7121789637331,180.20412058200742 332.4398807903196,175.7529683466683 339.22298761928266,172.83868634454117 344.8883384738711,171.4551097227657 349.28027827991616,171.56565877856139 352.26436869677326,173.10480138170166 353.7307021213103,175.98010987304676 353.59674286370654,180.07486137318045 351.80962917410545,185.2511190278443 348.34788096762134,191.3532217278901 343.22247051442935,198.2116014834897 336.47722676653063,205.6468410819402 328.1885580961325,213.47388005232813 318.4644927194827,221.50627439259446 307.44305066223615,229.56041503445357 295.2899754733444,237.45961163271875 282.1958677036749,245.0379519256923 268.3727751338205,252.14385253544268 254.05030658112153,258.6432245312925 239.4713465807788,264.4221861970597 224.88745709137527,269.38926601678287 210.5540594267338,273.47705068750867 196.72549470795494,276.6432457175595 183.65006414780117,278.8711295903534 171.5651513548912,280.1693962688417 160.6925275540301,280.57139467778825 151.233937184595,280.1337874232418 143.3670558305025,278.93466408922455 137.24190496685412,277.0711567017832 132.97779873607948,274.6566160997292 130.66088708538337,271.81741775385075 130.34234733737713,268.68947381631597 132.03726288657322,265.41453467832423 135.72421349979192,262.1363679243961 141.34558695043455,258.99690519538973 148.80860674860324,256.13244805274053 157.98705585963802,253.67002246208932 168.72366184925727,251.72396801937705 180.83309516177815,250.39284260531343 194.10551952107699,249.75671589647575 208.31062201251666,249.87491624504548 223.20204050096396,250.7842850629125 238.52209787540193,252.49798124048075" stroke="black" stroke-linecap="round" stroke-width="1" /><polyline clip-path="url(#border_clip)" fill="none" points="238.52209787540193,252.49798124048075 254.00674635738017,255.00486555416688 269.39062090048543,258.2694817490396 284.41209862916855,262.2326373194968 298.8182613599226,266.81257325544675 312.36966051165285,271.9066984805482 324.8447880942965,277.393851684584 336.04416386915614,283.137041034792 345.7939570615497,288.9866011142226 353.9490709965583,294.783696628671 360.39563050584906,300.3640941681101 365.0528246700985,305.56211679058543 367.874071143499,310.2146915649069 368.8474826599149,314.16539757050714 367.99563103620966,317.2684212720865 365.37461875153633,319.3923276814713 361.0724826759184,320.4235592621472 355.20696843756065,320.2695800507505 347.9227269593257,318.86158984834765 339.38799658345175,316.1567424154669 329.7908446879853,312.1398121936757 319.33505155750083,306.8242659446353 308.2357263189443,300.25270858806505 296.71474984484547,292.4966861529743 284.9961425572827,283.65584283504415 273.30145597822684,273.856443369906 261.84528565260104,263.24928597625853 250.83099975312052,252.00704468634598 240.44677233967525,240.32109266608919 230.86200301322947,228.39786985123305 222.22419573837612,216.45486862980704 214.65635911047264,204.71632015370994 208.25497854622841,193.40867096527035 203.08859804193077,182.75594481774812 199.19703555438122,172.97508773261552 196.59124201503687,164.27139539559164 195.25379979600882,156.8341209178099 195.14004241815883,150.8323577944267 196.17976373297796,146.41128764263814 198.27947201668104,143.6888751013389 201.3251326650739,142.75308327483938 205.18533272586689,143.65967249170237 209.7147915768697,146.43063315063762" stroke="black" stroke-linecap="round" stroke-width="1" /><polyline clip-path="url(#border_clip)" fill="none" points="209.7147915768697,146.43063315063762 214.75813484569,151.05329029268674 220.15384332294536,157.48010355178363 225.73828525902576,165.62917159227777 231.34973912281833,175.38543535277006 236.83231466304528,186.60255969707387 242.03968292684175,199.10545874069683 246.83853068866583,212.69341648255067 251.11166141476212,227.14374171975334 254.76067328224565,242.21588483070076 257.7081546977531,257.6559341236421 259.89934899530226,273.20140127834935 261.3032522846709,288.58619913401344 261.91312149536753,303.5457108336089 261.74638322522395,317.8218472165498 260.84394775432986,331.1679894049149 259.2689462180698,343.35371575471265 257.10492214384345,354.16921669685155 254.45352105058734,363.4293073813427 251.43173331035138,370.97695632777385 248.16875572088978,376.6862582994927 244.80254600916308,380.46479114545474 241.47615158221402,382.2553091471699 238.33389910549857,382.0367391963158 235.5175348013676,379.82446061782736 233.1624066470786,375.6698643351057 231.3937788823302,369.6592020316358 230.32336642617005,361.9117506784768 230.04617201269895,352.57733195692174 230.63770218858022,341.83323940934474 232.1516299188114,329.88063831666767 234.6179616048045,316.94051407051114 238.04175504911143,303.2492539545611 242.4024225523375,289.0539545807618 247.65364017221793,274.6075525885392 253.7238705030111,260.16387949873706 260.5174924476149,245.97274275248117 267.916517662672,232.2751339391092 275.7828599643633,219.2986620535066 283.9611112873067,207.25330439448064 292.2817660738644,196.3275605392841 300.56482549808356,186.6850858638901 308.62370393250615,178.46187052116096" stroke="black" stroke-linecap="round" stroke-width="1" /><polyline clip-path="url(#border_clip)" fill="none" points="308.62370393250615,178.46187052116096 316.2693527502486,171.7640178706239 323.3145110856681,166.6661633340122 329.5779896810024,163.2105608131437 334.888892507,161.40684945122158 339.0906815012594,161.23249895596035 342.04499251148366,162.63391724754612 343.63511530911387,165.52819015780787 343.76905725421733,169.80540959081557 342.38211870485884,175.33153424483527 339.43891839371895,181.95171595411284 334.93481852594334,189.49401517113694 328.89671203855346,197.77342127746897 321.38314803089764,206.59608744802512 312.483785535391,215.7636858229264 302.3181802424559,225.0777868421358 291.0339232105036,234.34416680520866 278.8041646682325,243.37695001977147 265.824569446384,252.0024962403376 252.3097630666379,260.0629503719905 238.4893387935141,267.41937947750273 224.60350577358685,273.9544317989886 210.8984665287145,279.5744635687957 197.62161835581304,284.2110915916521 185.01667747421615,287.8221426591842 173.3188269549728,290.3919845183555 162.749989511688,291.9312370545229 153.514324123107,292.47587625951445 145.7940412334056,292.085757128476 139.74562502255313,290.8425945672364 135.4965430854574,288.8474534101132 133.14251397529094,286.2178094826502 132.74539166127886,283.0842530574358 134.33171326516864,279.5869138382511 137.89194274228535,275.87169259882086 143.3804287532614,272.08638866770127 150.71608013778217,268.3768145032902 159.78374746777268,264.88298860005415 170.4362844425517,261.73549591174316 182.4972487063207,259.05210091782783 195.7641883214576,256.93469248813915 210.0124479042315,255.4666319523874 224.99941758365117,254.7105664297812" stroke="black" stroke-linecap="round" stroke-width="1" /><polyline clip-path="url(#border_clip)" fill="none" points="224.99941758365117,254.7105664297812 240.46913871061588,254.70675872863916 256.15717282026793,255.4719732267194 271.7956348936296,256.9989443555213 287.1182885912802,259.25644092119404 301.86559991338163,262.18992579944876 315.78964670201026,265.72279684733917 328.65878452199973,269.7581814863421 340.26197466761505,274.18124462760466 350.41268723184896,278.8619577170587 358.9523011881452,283.65826594137957 365.75293407709376,288.4195812961537 370.71964593453595,292.99052148511 373.7919752841451,297.2148086685524 374.944779064245,300.9392380457095 374.1883629645863,304.01762423291035 371.56790350158224,306.31463343635806 367.1621779427497,307.7094115184516 361.08163258743656,308.09892217825734 353.46583361468083,307.40091552334616 344.4803574289693,305.55645517250485 334.3131889010858,302.5319415275105 323.1707058719278,298.3205797815888 311.27333655251755,292.9432533548653 298.8509828409541,286.4487764988521 286.1383069550219,278.9135135076219 273.369981059492,270.4403660129227 260.7759997071186,261.1571439159706 248.5771529155562,251.21434931048708 236.98075361864687,240.78241597547424 226.176707154503,230.04845936996685 216.33400252216435,219.2126032716664 207.59769553079798,208.48395901743248 200.08644289381755,198.07634150642954 193.8906340295317,188.20381253137282 189.07115409047952,179.07614646364502 185.65879784591414,170.89431572998058 183.65433979000971,163.84609382222763 183.02925155332753,158.10187176345255 183.72704366812064,153.81078004552535 185.66519528384703,151.09720213300034 188.73762283926834,150.05775781716392 192.81762724367292,150.75882516543936" stroke="black" stroke-linecap="round" stroke-width="1" /><polyline clip-path="url(#border_clip)" fill="none" points="192.81762724367292,150.75882516543936 197.76124904859614,153.23465874565304 203.410952618671,157.4861494462418 209.59955361625975,163.48025782509666 216.1542993403156,171.1501387870202 222.90100870419798,180.39596081504635 229.66817795418424,191.08640827661375 236.29095962890307,203.06084080770003 242.614925702904,216.13206975898294 248.49953126330436,230.08969847018898 253.821202312193,244.70396100756687 258.4759802043176,259.7299832174999 262.38166561811863,274.9123807506352 265.47941658492994,289.9901012958227 267.7347677057578,304.70141279381414 269.13805098595105,318.7889359976417 269.70421241876727,332.0046184862026 269.4720322443977,344.1145481501912 268.5027703947439,354.90350723890344 266.8782717044795,364.17917322002427 264.69857773562524,371.7758798547445 262.07910325396676,377.5578608771915 259.14744526307436,381.4219093004553 256.0399008267648,383.29939742630495 252.89777650912413,383.1576158562917 249.86357698648487,381.0004039075293 247.07716313327748,376.8680585271869 244.6719705924946,370.8365237632209 242.77137849573435,363.01587776682555 241.48531462701584,353.548148857245 240.907178003171,342.60450606250106 241.11115268917564,330.381882465315 242.149977837454,317.0991013579165 244.05322863127313,302.9925853951597 246.82615125198427,288.31173741707823 250.44908243406994,273.3140882110459 254.8774708989448,258.2603110619226 260.04250426260137,243.4092054012414 265.8523311975123,229.01275216441366 272.19385500272017,215.31134159534218 278.93506160103044,202.52927024451694 285.92783263151375,190.87059787893207 293.0111830151068,180.51544709287788" stroke="black" stroke-linecap="round" stroke-width="1" /><polyline clip-path="url(#border_clip)" fill="none" points="293.0111830151068,180.51544709287788 300.0148523940088,171.61681875135474 306.76317140632653,164.29798522292916 313.0791170470525,158.65051090898905 318.7884665382998,154.73293612126045 323.7239562979516,152.57014618997349 327.72935182508775,152.15343310691452 330.6633356360875,153.44124233469375 332.4031237647706,156.36058296123366 332.8477267155899,160.80906545668287 331.9207780190332,166.6575181965187 329.572862529822,173.7531219288249 325.7832871396902,181.92299074037123 320.5612484218804,190.97811903988992 313.94636462908716,200.71760681769456 306.00855315178,210.93307010944199 296.8472487132983,221.41314029718103 286.5899719242099,231.94795468721327 275.3902720289716,242.3335417302927 263.42508144293106,252.37600726780937 250.89153269615085,261.89543322490346 238.0033003869226,270.7294071112534 224.98654143845266,278.73610937473154 212.0755161108482,285.79689588673295 199.50797964373558,291.8183243919369 187.52043992629942,296.73358637245184 176.3433800857853,300.50331917697514 166.19654627073663,303.11578715353176 157.28440014507612,304.5864345932924 149.7918327135593,304.95682723337444 143.88023112424918,304.29301257231856 139.6839831406432,302.6833420272013 137.30749518895266,300.23580972679724 136.82278944866124,297.074973234249 138.26773358662288,293.338530497067 141.64494368755265,289.1736346369304 146.92138698356044,284.7330336591857 154.0286964289757,280.171125665521 162.8641943141733,275.6400216198594 173.2926072802798,271.285707118857 185.14844060231832,267.2443919718839 198.2389657614515,263.6391317635208 212.3477624238538,260.57679906065573" stroke="black" stroke-linecap="round" stroke-width="1" /><polyline clip-path="url(#border_clip)" fill="none" points="212.3477624238538,260.57679906065573 227.23874426075818,258.1454736838356 242.6605878318142,256.41231167431033 258.35147523114097,255.42194147390475 274.0440545453529,255.19542364330195 289.4705175383216,255.72979744801574 304.36769145831636,256.99822413042074 318.4820415139434,258.9507229621162 331.5744823939975,261.51548253967854 343.42490117430555,264.60071655245736 353.83629997739763,268.0970207086641 362.6384746999075,271.88017593546783 369.69115582822803,275.81433262859446 374.88654861783084,279.75550184833025 378.1512224753636,283.5552721409333 379.4473129868236,287.06466526971536 378.77301438928674,290.1380406907166 376.16235508150925,292.6369571832818 371.68426369459564,294.43390068060137 365.4409479797922,295.41579002855684 357.5656230026464,295.48717707690747 348.2196385587632,294.5730640747736 337.58906806134837,292.6212696604329 325.88083213359505,289.6042846227169 313.318439538102,285.5205698519724 300.13743569360764,280.3952612466494 286.5806547077002,274.2802595262623 272.8933744760731,267.2536966330505 259.3184758920673,259.41878438082927 246.09170654832673,250.90206492203666 233.43714651552372,241.8510961453877 221.562968917376,232.43161798691614 210.65758119714297,222.8242575506959 200.88622434105093,213.22084162675836 192.38809707990222,203.8203944234456 185.2740604571943,194.82490589195174 179.6249653856522,186.43496174046862 175.49063219335116,178.84532998243446 172.88949698263465,172.240600548967 171.80892519824772,166.79097407557572 172.20617843863403,162.6482934494898 174.0100065571721,159.94240712410942 177.12282379036225,158.7779466638334" stroke="black" stroke-linecap="round" stroke-width="1" /><polyline clip-path="url(#border_clip)" fill="none" points="177.12282379036225,158.7779466638334 181.4234153043002,159.2315926114706 186.77010943421794,161.34989274735076 193.00434124210454,165.14768534620623 199.9545250395936,170.60716737878835 207.4401473856651,177.6776340204355 215.27598789896945,186.27590160956385 223.2763731072062,196.287411650854 231.25936853042577,207.56799889411505 239.0508162549914,219.9462922547964 246.48812934826947,233.2267036844634 253.42376049451778,247.1929473453368 259.72827006129916,261.61201986937584 265.2929282553014,276.2385623415594 270.0317968837263,290.8195161607445 273.88324825897024,305.0989782862329 276.81089170157,318.82315672105796 278.80389162154665,331.7453245185606 279.8766749906768,343.6306701866715 280.06803985090926,354.2609441178826 279.4396900306632,363.4388045590091 278.0742341617896,370.9917725744676 276.0726991200378,376.7757133266538 273.55161888540425,380.6777706322104 270.63976929607134,382.61869295057625 267.47462704212865,382.5545014845058 264.1986373399391,380.47746465591416 260.9553789112805,376.4163575761337 257.8857170720369,370.4359999524531 255.12403586631106,362.63608084741435 252.79463826180614,353.14929351517435 251.00839949496165,342.1388178651403 249.85975280779044,329.79520164218354 249.42407918326128,316.3327038769417 249.75556343257284,301.98517528400185 250.8855683217631,287.00155983378284 252.82156658407618,271.6411094932166 255.546657911726,256.16840995651955 259.01968463979915,240.84831894781115 263.17594612373256,225.94092029377313 267.92849807528995,211.69659640461825 273.1700096662652,198.35131907971646 278.7751383343331,186.12225373098386" stroke="black" stroke-linecap="round" stroke-width="1" /><polyline clip-path="url(#border_clip)" fill="none" points="278.7751383343331,186.12225373098386 284.6033702191023,175.20376529826797 290.50226328718054,165.76390546483728 296.3110207168415,157.94145045554404 301.8643142194053,151.84354693850415 306.99627085456484,147.54401060699044 311.54453269057734,145.0823081704691 315.35429646552694,144.4632390301307 318.2822402765905,145.65731816523504 320.200246268868,148.60184702831066 320.998832276678,153.202644854931 320.5902113062069,159.3363990448542 318.91090551382973,166.85358045873724 315.92385076362564,175.5818578706685 311.6199387380512,185.32993566703695 306.01895569235677,195.89173040053558 299.1698900236839,207.05079517167667 291.1505945857014,218.58489615613382 282.06680381943795,230.2706430184132 272.0505199819481,241.88807449957437 261.2577967256532,253.22510214162182 249.86596170614752,264.0817188703421 238.07033247971628,274.2738849132385 226.08049141616,283.63701114820776 214.1161954439063,292.0289692899377 202.40300493825842,299.3325691165349 191.1677227696619,305.45745497870837 180.63373929519776,310.341386851506 171.0163817930545,313.95088489702715 162.51836744068763,316.28123060425537 155.3254574026892,317.35583174988955 149.602405950285,317.2249723715221 145.48929285283458,315.9639823571414 143.09831967899242,313.67087384055645 142.51114127937623,310.4635030774916 143.7767927902099,306.47632661302777 146.91026022924348,301.85682911908594 151.89172941137574,296.7617070969135 158.6665337755959,291.3528975589841 167.14580708849786,285.79354372423796 177.2078321851782,280.24399062116174 188.70006224264276,274.85790228122 201.4417768682656,269.7785889525656" stroke="black" stroke-linecap="round" stroke-width="1" /><polyline clip-path="url(#border_clip)" fill="none" points="201.4417768682656,269.7785889525656 215.22732183144132,265.13562754764183 229.829868859546,261.0418514781986 245.00562082674136,257.5907772878163 260.4983781251714,254.85452526258172 276.044374228771,252.8822797149387 291.3772826087167,251.699322151253 306.2332933637744,251.30665732936745 320.35615627170154,251.68123858311094 333.5020874869125,252.77678504022148 345.4444397956272,254.52516979479367 355.9780411370556,256.83834501720685 364.92311290690026,259.6107576846804 372.1286882335453,262.7221983679461 377.4754607736726,266.0410155645138 380.87800639258234,269.4276196482554 382.2863331237234,272.7381937964665 381.68672876449847,275.8285244092241 379.1018900639823,278.55786066063587 374.59033238193877,280.7927119827871 368.24509362976283,282.4104935011361 360.19176092503193,283.3029326896102 350.58586239140243,283.37915572458644 339.60967961733604,282.56837907575823 327.46854817323606,280.82214062408764 314.3867240255504,278.11601485054507 300.6029024580935,274.45076816867436 286.3654830311105,269.8529230252725 271.9276790332559,264.3747126898216 257.54257270954554,258.09342240109424 243.45821822346124,251.11012643451866 229.91289282411444,243.5478443886314 217.13059307654066,235.54915325848256 205.31686735730906,227.2733043731121 194.65506824499326,218.89290574429833 185.30309911301413,210.59024054813187 177.3907183656372,202.5533011110064 171.01745258409545,194.97162470178912 166.25115663422622,188.03202248403554 163.1272448169065,181.91429603881414 161.64860272087813,176.78703685617904 161.78617487631118,172.80360308291216 163.48020892102522,170.09836462307777" stroke="black" stroke-linecap="round" stroke-width="1" /><polyline clip-path="url(#border_clip)" fill="none" points="163.48020892102522,170.09836462307777 166.64212308956112,168.7833024789715 171.15695071695197,168.94504110026497 176.88630339510877,170.64238362759585 183.6717836875119,173.9044094614116 191.33876912539748,178.72918178018915 199.70048176968075,185.0830997268692 208.5622520829518,192.90091625562718 217.72588232883405,202.08642837865594 226.99401327155908,212.51383208229643 236.17439861101005,224.02971980690148 245.08399433596637,236.45568441719843 253.55277494366405,249.59148033343823 261.4271951459906,263.2186802373517 268.5732241091828,277.1047547789226 274.8788892642948,291.00749323138126 280.2562780556656,304.6796752816377 284.64295841100466,317.8738982738852 288.0027919431262,330.34746037709266 290.32612763619187,341.8671984109209 291.6293777242305,352.2141794822164 291.9539913282601,361.18814815225693 291.3648548748222,368.6116355235797 289.9481610767964,374.33364330944005 287.8088000365173,378.2328244902818 285.0673365729823,380.2200923912677 281.85664694848464,380.24060171752626 278.3182955771784,378.2750580120127 274.59873787773245,374.34032588078384 270.8454390637224,368.4893208673386 267.20300027122715,360.81018474234526 263.80938297053353,351.42475889067674 260.7923201106762,340.48638510639285 258.2659979597132,328.17707713623423 256.3280862320006,314.7041194440783 255.05718597974308,300.2961616224723 254.51075505168893,285.19888739778446 254.72355990336993,269.6703460382837 255.70669042679503,253.9760409906597 257.44716152329806,238.3838755907253 259.90811165991755,223.1590586116926 263.0295949278236,208.55907316689937 266.7299494668228,194.8288110580022" stroke="black" stroke-linecap="round" stroke-width="1" /><polyline clip-path="url(#border_clip)" fill="none" points="266.7299494668228,194.8288110580022 270.9077118373978,182.1959710859387 275.44403430753266,170.86681419790585 280.2055503575746,161.02236075102607 285.0476232536187,152.8151057957876 289.81790353282884,146.36631732138744 294.3601138854507,141.76397009620004 298.517974374517,139.06135434383316 302.13917733199895,138.27638430569388 305.0793196932769,139.39161705850796 307.20570101957395,142.35497709386203 308.4008980041695,147.08116744404435 308.56603081115173,153.45373386829272 307.6236430591971,161.32773509987305 305.520125499143,170.53295968432263 302.22762326541726,180.87761877689374 297.7453777947426,192.15243464832355 292.1004668571642,204.1350367744834 285.34791936506565,216.59457142120024 277.57019542650823,229.29642670310267 268.876036187668,242.00697327317525 259.39870205633036,254.49822112055674 249.2936316053097,266.55229540440155 238.73556651901342,277.9656387717936 227.9152000793335,288.55285409352024 217.03541761938214,298.1501098565834 206.30720686181812,306.6180403910282 195.94532389002194,313.8440844605683 186.1638064982884,319.74421826092237 177.17143069418196,324.26405227149803 169.16720808756412,327.37927540118363 162.33602174662397,329.0954441514531 156.84449582753405,329.44712877815914 152.83718993320252,328.4964423569376 150.43320281533488,326.3309919437668 149.72326183340533,323.06130338418507 150.76736469556784,318.81778249509375 153.59302863838582,313.7472850816945 158.19418959542764,308.00937635050644 164.53078032750108,301.7723665654742 172.529002229381,295.20921413583847 182.08229089443864,288.4933896324933 193.05296082344753,281.79479445952376" stroke="black" stroke-linecap="round" stroke-width="1" /><polyline clip-path="url(#border_clip)" fill="none" points="193.05296082344753,281.79479445952376 205.27450022279785,275.2758260607043 218.55447296129097,269.0876776637048 232.67797174287549,263.36695474884345 247.41155468628156,258.23268280812886 262.5075870384664,253.7837717071797 277.708900914261,250.09699128614352 292.7536789420518,247.22550097569206 307.3804626582637,245.19796342599955 321.33318354309444,244.0182587355958 334.36611379294766,243.66580212200756 346.24863530170444,244.09645410301528 356.7697288470979,245.24399876230666 365.7420910776401,247.02215275598556 373.0057944528297,249.3270556634536 378.4314146457038,252.0401813649466 381.92256087446503,255.031600580611 383.4177569567575,258.16351674406803 382.89163431458223,261.29399118340393 380.355412414416,264.28076928188443 375.8566569027297,266.98511698482275 369.47832067754644,269.2755767591944 361.33708800330305,271.03155390479264 351.5810562129225,272.1466479205579 340.3868032407911,272.53164936326255 327.95590190227847,272.1171301713612 314.5109532106859,270.8555645979714 300.2912208601686,268.7229285008076 285.5479570954194,265.7197365387996 270.5395163655073,261.8714895637493 255.52635729119308,257.22851788843656 240.76603547723724,251.86521986303788 226.50828953438574,245.87870899429618 212.99032034714475,239.38689638976751 200.4323591868208,232.5260483010863 189.0336138234644,225.44787068576454 178.96867347718916,218.3161837350487 170.38444345063306,211.3032589784499 163.39766881781185,204.58589965605876 158.09309385922157,198.3413513644332 154.522290303511,192.74313438601268 152.70317315691827,187.95689150272105 152.62020828094936,184.13634541278338" stroke="black" stroke-linecap="round" stroke-width="1" /><polyline clip-path="url(#border_clip)" fill="none" points="152.62020828094936,184.13634541278338 154.22530123122593,181.41945810232914 157.43934251075484,179.9248807023697 162.15437062691598,179.74877656464653 168.23630146756125,180.96209263756424 175.5281608022301,183.6083448777871 183.8537464182977,187.70197259337675 193.02163773642485,193.2273045130115 202.8294638967232,200.13816627341785 213.06833640863306,208.3581451967005 223.527349612981,217.78151399016727 233.99805146858301,228.27480065273835 244.27878855671173,239.678977726454 254.1788326573597,251.81223039762003 263.5222017089616,264.4732501280218 272.1510952922783,277.4449887637494 279.92887381321896,290.4987976858043 286.74252109543306,303.3988677623906 292.5045418961978,315.9068788334831 297.154258665996,327.7867623617092 300.65848539943136,338.8094778360606 303.011570373837,348.75770258863315 304.23481363461786,357.4303359058896 304.37527895371056,364.64672166491687 303.5040333551495,370.250499135823 301.71385987679014,374.11299895319735 299.11650074491286,376.1361104195123 295.83949832784276,376.2545570695242 292.02270988441705,374.437529570199 287.8145790459132,370.68963829845836 283.3682520170158,365.05116204754415 278.8376295451852,357.5975839619544 274.3734467248737,348.43842067860055 270.1194716550783,337.71536544061826 266.20891088296094,325.5997803342258 262.7611045148339,312.28958647057226 259.8785869741543,298.00561360106013 257.64458079045846,282.98748204485133 256.12098070684453,267.48909967703486 255.3468740231187,251.77386486352705 255.3376307015015,236.109672459497 256.0845836286936,220.76382417804606 257.55530584525866,205.99794669479388" stroke="black" stroke-linecap="round" stroke-width="1" /><polyline clip-path="url(#border_clip)" fill="none" points="257.55530584525866,205.99794669479388 259.69447782368934,192.0630207373514 262.42532430634634,179.19462211841326 265.651587106304,167.60847125597377 269.25998792040605,157.49638127807458 273.1231238802541,149.0226864701463 277.1027285264673,142.32122276854668 281.05322235906556,137.49292044915103 284.8254702837543,134.6040563516929 288.27065829421224,133.6851991925766 291.24419871736416,134.73086704550738 293.6095723717988,137.69990121939304 295.24201707377796,142.5165458532541 296.03197504996695,149.07220789601067 295.8882169152821,157.22785805679928 294.7405668386038,166.81702009813614 292.5421621977204,177.64928377999453 289.27119122888445,189.51426610285674 284.93206368298445,202.1859364666799 279.55598205767603,215.42721414976987 273.200894307424,228.99474126670566 265.9508227482445,242.64373119502406 257.9145778668299,256.1327914288552 249.2238796059824,269.22862094042944 240.03092212344615,281.7104853772721 230.50543071184643,293.3743787181464 220.83127124154151,304.03678723455266 211.20268288549988,313.53798059564843 201.82021377296942,321.7447655137743 192.88644639640026,328.55264922288484 184.60160490049225,333.8873730522288 177.15913969064266,337.7057901190747 170.7413860310935,339.99607541712027 165.5153924265016,340.77727101148355 161.62901160622457,340.0981833536682 159.20734191586152,338.0356635910324 158.34959996765326,334.692314865802 159.12649665481723,330.1936826960796 161.578178278741,324.68499534606747 165.7127827915761,318.32753039383067 171.50564827028677,311.29469129487194 178.89919698705836,303.7678834588484 187.80350411999675,295.93228308638106" stroke="black" stroke-linecap="round" stroke-width="1" /><polyline clip-path="url(#border_clip)" fill="none" points="187.80350411999675,295.93228308638106 198.09754556509895,287.9725936782532 209.63110477974948,280.0688847008078 222.2273044232418,272.39260438531363 235.68571506753062,265.1028541171954 249.78598072416946,258.3430054390398 264.29188964349197,252.23773249655233 278.95580903567986,246.89052298487678 293.52339425500065,242.38171952385625 307.73847675653536,238.76713115425258 321.3480309173639,236.0772415758788 334.1071177064781,234.31702713412673 345.78370323943125,233.46638370605342 356.1632524682985,233.48114784840158 365.0530025917973,234.294684153129 372.2858271356687,235.81999800802566 377.7236099171615,237.9523211624984 381.2600580962937,240.57210691197045 382.8228950198702,243.54836257194427 382.3753863387053,246.742239415851 379.91716665333684,250.01079456407643 375.4843484263071,253.21083555960678 369.14890978201595,256.2027566303287 361.01737278169566,258.85427595627345 351.22879849277103,261.0439856237167 339.9521393552271,262.6646303035043 327.38300268079735,263.62603694069475 313.73989132016294,263.8576257471238 299.25999833958986,263.3104423695125 284.19464173206165,261.9586620500604 268.8044325543491,259.80052866068064 253.3542752749581,256.8587044078611 238.10830242520137,253.1800194853298 223.32484679822323,248.83462469634688 209.25155341634502,243.9145637705779 196.12073030996615,238.53179545679518 184.14503189194338,232.81570818418356 173.5135614849597,226.91018186778027 164.38847052303035,220.9702620237465 156.90212129778106,215.15852051993397 151.15486808567215,209.6411848100136 147.2134983335386,204.58412321453255 145.1103615800576,200.1487775885221" stroke="black" stroke-linecap="round" stroke-width="1" /><polyline clip-path="url(#border_clip)" fill="none" points="145.1103615800576,200.1487775885221 144.84319925106644,196.48813646408337 146.37567369919236,193.74284143363562 149.6385801795487,192.0375171466743 154.5317111773659,191.47741087695948 160.92632893518476,192.14542126964523 168.66818945563764,194.09958773320645 177.58104994784154,197.3711021731287 187.4705818801815,201.9628935832028 198.1286037060158,207.84882365738412 209.33754111047688,214.97351832822247 220.87501841402354,223.2528462649534 232.5184826460155,232.57504117770432 244.04976180820083,242.8024505837265 255.25946097632266,253.773879807729 265.95110408478706,265.30748671592124 275.9449354064827,277.20417031429076 285.0813027368797,289.25138514897105 293.2235539385037,301.22730367832276 300.26038958341917,312.9052406601493 306.10762670137876,324.0582472956797 310.70934182845565,334.4637785377071 314.0383753645699,343.9083347042941 316.09619338467553,352.1919783977861 316.91211719747986,359.1326297216065 316.54194479784485,364.5700468782622 315.0660016120795,368.3694053394905 312.586670300562,370.42439677797734 309.22546059097414,370.6597786728894 305.1196899252386,369.0333167442677 300.4188539025332,365.5370748965652 295.28077191377906,360.1980208935721 289.8675978535746,353.0779302575311 284.34178826995856,344.27258558002427 278.8621207214009,333.91028323720457 273.579853450307,322.1496741002196 268.63511379487414,309.17697891028644 264.1535971327296,295.20263224457597 260.2436507093854,280.45742114888304 256.9938076209212,265.1881952944192 254.47082569819298,249.65323469651284 252.71827431551543,234.11736841417144 251.7556994826739,218.8469430714383" stroke="black" stroke-linecap="round" stroke-width="1" /><polyline clip-path="url(#border_clip)" fill="none" points="251.7556994826739,218.8469430714383 251.5783842583064,204.10474338623774 252.15770784238313,190.1449680863885 253.44209297068195,177.20836360819942 255.3585177507586,165.5176148297572 257.8145551471837,155.27308685417256 260.7008912316648,146.64900463807544 263.89426233033464,139.79014821047116 267.26074157063243,134.80913053886323 270.6592972685374,131.7843130006009 273.9455392834446,130.7584001652192 276.9755650440825,131.73774147028124 279.6098145141557,134.69235267966278 281.71684297649995,139.55665506222059 283.1769221798963,146.23091533859747 283.8853840782921,154.58335493130812 283.7556270183102,164.45288322667773 282.7217116749076,175.65239671018946 280.7404831338946,187.9725742415962 277.79316607401955,201.1860886379206 273.88639177837166,215.05214634398342 269.0526284455416,229.32126046721183 263.3499996942964,243.7401579713398 256.86148996495405,258.05671945380715 249.69354941072396,272.02484972026946 241.97412453524674,285.409179316278 233.85015396514527,297.98950123410805 225.48458105643627,309.564853089807 217.05294624655926,319.95716302641284 208.7396319285528,329.01438726825273 200.73384091868746,336.6130784161085 193.2253961258056,342.6603359898322 186.40045366007598,347.09510412320645 180.43722423271927,349.88879540434675 175.5017982323165,351.04523432832207 171.74416829882006,350.5999283738585 169.29453958047705,348.6186890190647 168.26001222406057,345.19563876409325 168.72171313146083,340.45065313616783 170.7324447735835,334.5262984380963 174.31490808142124,327.5843364138757 179.46054436370827,319.80187582327494 186.12902808919137,311.36725795551" stroke="black" stroke-linecap="round" stroke-width="1" /><polyline clip-path="url(#border_clip)" fill="none" points="186.12902808919137,311.36725795551 194.24842850099785,302.47576822359196 203.71604369977175,293.3252690611641 214.3998963508193,284.1118503326678 226.1408658520723,275.0255923511843 238.75541795505657,266.246533407944 252.03887976146663,257.9409285300954 265.7691960085072,250.25787911913255 279.71109186962644,243.32640434239266 293.62055836832553,237.25301485240212 307.2495691328777,232.1198378245165 320.35093177289326,227.9833296908873 332.6831737573958,224.87359958891435 344.01536139714943,222.79435273145265 354.13175141445186,221.72344894989402 362.8361776080678,221.6140578682064 369.95608022978263,222.39637884031328 375.3460927775864,223.9798812182435 378.89110983135106,226.25600899046879 380.50877012299577,229.1012835916917 380.15130102188084,232.3807299611819 377.8066837739751,235.95154390703667 373.49911288125753,239.66691367107552 367.2887376474471,243.37990539494038 359.2706888361242,246.94732103025572 349.5734082699254,250.23343813727737 338.35631372762055,253.11354395468646 325.8068453597607,255.47718103044684 312.1369527475089,257.2310284688492 297.57909339797067,258.30135131990596 282.3818236539149,258.6359606243798 266.80507147905803,258.2056379076974 251.11518718131558,257.0049902370286 235.57987271516487,255.05271504311847 220.46309266339796,252.39126747027268 206.02007028639682,249.08593675192495 192.49247013846662,245.22335170925126 180.10386472719878,240.90944863298844 169.05557662049824,236.26694724012236 159.52297941782643,231.43239181958333 151.65233126940183,226.55282483877255 145.55820335884277,221.78216894764552 141.32155320305378,217.2774002939601" stroke="black" stroke-linecap="round" stroke-width="1" /><polyline clip-path="url(#border_clip)" fill="none" points="141.32155320305378,217.2774002939601 138.98847903755586,213.19460119402723 138.56967723714345,209.68498337032725 140.0406099772755,206.89097409635164 143.3423754863153,204.94245665053614 148.38325858989936,203.95325349130061 155.04092511873208,204.0179355853821 163.16521044073215,205.20903445719767 172.58144017035767,207.57472492495782 183.09421026057834,211.13703633525125 194.49154442507995,215.8906386219222 206.5493393639635,221.8022369470731 219.03600273073525,228.81059530604213 231.717185294966,236.82719558663956 244.36050739233443,245.7375244701353 256.7401805346437,255.40296655711663 268.64142795326404,265.66326850356455 279.86461280098524,276.3395260612923 290.22898962594826,287.2376340174441 299.57600340199366,298.1521283842201 307.77207065899285,308.8703410396976 314.71078887712997,319.17677956883347 320.3145330342898,328.85763946913465 324.53541174592084,337.7053522964518 327.3555695149687,345.52307181805895 328.78683590791354,352.12900085271974 328.86973667975155,357.36046420482717 327.67189567680924,361.0776378899887 325.28586945190875,363.1668516056908 321.8264686479255,363.54338998313415 317.42763108163945,362.1537283852301 312.23892085621674,358.97715067527815 306.4217355467792,354.0267092237109 300.145309375615,347.3495011730679 293.5826041986754,339.0262493503624 286.9061819834409,329.1701908936287 280.2841522354105,317.92529133080706 273.8762855374711,305.46381619889127 267.83038005974964,291.9833060104412 262.2789616778841,277.7030131671992 257.3363903474541,262.8598710101723 253.0964358027774,247.70407533111666 249.63037469525656,232.4943671317764" stroke="black" stroke-linecap="round" stroke-width="1" /><polyline clip-path="url(#border_clip)" fill="none" points="249.63037469525656,232.4943671317764 246.9856492057032,217.493112020073 245.18511422681217,202.96127623199436 244.22688670495648,189.15340176237066 244.08479695565416,176.31268342030899 244.70942803089463,164.66624878542652 246.02971582428933,154.42073806542336 247.9550698491264,145.75827482609725 250.37796279782293,138.83291060786902 253.176926351318,133.7676167259398 256.21988148955444,130.65188527984813 259.36772396372544,129.5399888113712 262.47807979569814,130.44993441463504 265.409141798518,133.3631337087199 268.02349625011044,138.2247952370197 270.1918490417264,144.9450308749074 271.79656285946305,153.40065302654818 272.7349211921468,163.4376250877186 272.9220410986187,174.87411414824052 272.29336457643683,187.50408249185747 270.80666787744525,201.1013433863747 268.4435390034048,215.42399717685055 265.210285646026,230.2191559996455 261.13824874389064,245.2278596868584 256.28351032784525,260.1900817488809 250.7259981170995,274.84972278282066 244.56800310424623,288.9594892856981 237.9321398224755,302.28555863629686 230.9587918227606,314.611935884835 223.80309681638633,325.74441484690135 216.63153669205536,335.5140646866357 209.61820695555696,343.7801735040745 202.94084785299458,350.4325921880775 196.77672535062032,355.3934347043826 191.29845411951084,358.6181047786155 186.66985661805398,360.0956333085421 183.04195223035725,359.8483254885316 180.5491682006709,357.93073123679 179.30585984489096,354.4279667687009 179.40322130718698,349.4534287521034 180.90666009282253,343.14595512203135 183.8536989175945,335.66649805397924 188.25245727688048,327.1943845537821" stroke="black" stroke-linecap="round" stroke-width="1" /><polyline clip-path="url(#border_clip)" fill="none" points="188.25245727688048,327.1943845537821 194.08075279205613,317.92324840854224 201.2858491049798,308.05672368324275 209.7848631494999,297.8039944087128 219.4658303346393,287.3752974986506 230.18941183778352,276.97747621177325 241.791214140023,266.80967964118565 254.08467744681684,257.0592998139822 266.8644770205604,247.89823211198436 279.91036998438034,239.4795370141618 292.9914100911581,231.9345717872275 305.8704445111462,225.37064992353328 318.3088000636039,219.86927408635353 330.07106165179016,215.48497533946633 340.92984306337814,212.24477779819068 350.67044983232717,210.14829384400133 359.09533553992685,209.16844100293312 366.02825673217626,209.25275780797782 371.31803747215065,210.3252827499723 374.8418623095828,212.28894805948204 376.5080259738902,215.0284288240114 376.25807918144517,218.41337807542928 374.068322359142,222.30197019617907 369.9506125614802,226.54466846884085 363.95246311134275,230.9881279720565 356.1564302221541,235.47914240473068 346.6787957472898,239.8685428535836 335.6675699337468,244.01495801500045 323.2998523164532,247.7883489036507 309.7786023722615,251.0732365458361 295.32888397006246,253.7715484404551 280.1936587396177,255.80501851027373 264.6292129990273,257.1170856598869 248.90031062508518,257.67424767138687 233.27517005590488,257.46683974453515 218.02036735636273,256.5092202442622 203.39576887356068,254.83935985876133 189.64959642702297,252.5178440920604 177.0137252287778,249.62631250978035 165.6993098703282,246.26537112487114 155.8928268504426,242.55202646213448 147.75261339629887,238.6167009049843 141.40597193715553,234.5998986578142" stroke="black" stroke-linecap="round" stroke-width="1" /><polyline clip-path="url(#border_clip)" fill="none" points="141.40597193715553,234.5998986578142 136.94689774652463,230.64859983462054 134.4344742288552,226.91246662547425 133.89196636857466,223.53995005163682 135.30662828103627,220.67438839365917 138.63022591759756,218.45018890458863 143.7802610981626,216.9891828874823 150.64186849103135,216.39724065335818 159.07034324143962,216.7612273579503 168.8942439623963,218.14637336187704 179.9190040196072,220.5941237284716 191.93097371544292,224.12052096318126 204.7018073224471,228.71516333767676 217.99310211592115,234.34076838813434 231.56119174862678,240.93335771038386 245.16199359645952,248.40306529079785 258.55580913468305,256.6355576166978 271.5119779863215,265.494040012502 283.8132899775598,274.82181035293354 295.26006525404483,284.44530880704883 305.6738201278229,294.177600844467 314.90044566764107,303.8222206428235 322.81283690887335,313.17729349941163 329.3129227044024,322.0398490628943 334.33305939818393,330.21023231772506 337.836765391385,337.4965163880784 339.8187879842278,343.71882044940185 340.30450830381164,348.71343736850304 339.3487043562856,352.33667911567784 337.03370596293837,354.4683534374667 333.4669882579126,355.01479263465995 328.7782622623773,353.9113644037503 323.1161315522883,351.1244053791497 316.64439298021495,346.652530031665 309.53806660645773,340.5272806798571 301.9792452897665,332.8130982748075 294.1528576741333,323.6066080272355 286.2424395202382,313.03522854902695 278.4260074485136,301.25512766430523 270.87212621164826,288.448562095412 263.73625566904445,274.8206515424622 257.15745680923806,260.5956499627215 251.25552761453162,246.01278785072245" stroke="black" stroke-linecap="round" stroke-width="1" /><polyline clip-path="url(#border_clip)" fill="none" points="251.25552761453162,246.01278785072245 246.12862947856348,231.32176878199706 241.85145349897016,216.77801120537487 238.4739635286606,202.63773228095494 236.02073965810263,189.15297433393334 234.4909321115146,176.56667614299272 233.85882167610862,165.10789076606744 234.0749690530403,154.98724893261783 235.06792222560802,146.39276225311903 236.74643837855984,139.4860537116307 239.0021653496686,134.3990942576236 241.71271730597815,131.2315139804477 244.7450705391047,130.04854455200137 247.9591981603425,130.87963660999358 251.21185720336211,133.7177818016356 254.36043832548393,138.51955461195655 257.2667870100543,145.20587417244886 259.80090593963627,153.6634713019546 261.8444510143984,163.74703139057172 263.2939382690132,175.28196971046452 264.06358558768613,188.067782623258 264.0877214824351,201.88190623110174 263.32270309820706,216.48400354086846 261.7482968196634,231.62059240068015 259.368487129208,247.02991951161286 256.21169243114184,262.4469808618177 252.33038012215462,277.60858607926474 247.80008695189483,292.25836351156016 242.71786437268057,306.151604329097 237.20018182021605,319.05984757681904 231.38033340198714,330.77511378987265 225.40540501665402,341.11370241503744 219.43286922756533,349.91947767730926 213.62688403500607,357.06657849578573 208.15437883578102,362.4615003481413 203.18101616276053,366.04451034327826 198.86712113892372,367.7903708995303 195.36367188111902,367.7083620371243 192.80844331393715,365.84160706483874 191.3223940151123,362.26572105540424 191.00638086752204,357.0868156495567 191.93827954019332,350.43890710286547 194.17058030488772,342.4807868077841" stroke="black" stroke-linecap="round" stroke-width="1" /><polyline clip-path="url(#border_clip)" fill="none" points="194.17058030488772,342.4807868077841 197.72851859800312,333.3924245244168 202.60878827694944,323.3709840048032 208.77887294348199,312.6265383985948 216.1770172863644,301.3775786225008 224.71284642393792,289.8464116430969 234.2686270081915,278.2545472879211 244.70114969636694,266.81817173426765 255.84419881395186,255.7438032460258 267.51156192663706,245.22422109933072 279.50051989694816,235.43475206508555 291.5957470919598,226.52999044988806 303.5735419737018,218.64101772447057 315.20630055398357,211.87317641283533 326.2671393046485,206.304440427808 336.5345702169673,201.9844106957457 345.7971288912521,198.93395100862998 353.85785685603355,197.1454648813129 360.5385417654068,196.58380008570555 365.6836236573333,197.18775379074856 369.16368198345776,198.87213815699744 370.8784265076878,201.53035410233747 370.7591252412375,205.03741003410516 368.7704141241464,209.2533128690264 364.91144593335963,214.0267508399755 359.21634962421336,219.19898158504867 351.7539857034118,224.6078349570262 342.62699798027063,230.09173796417372 331.9701768338687,235.49366929592142 319.9481636501238,240.66495299310662 306.7525400134373,245.46880494059388 292.59835828333826,249.7835518944085 277.7201820670151,253.50545056816838 262.3677155579777,256.55104371768914 246.80110952376603,258.85900096620236 231.28603870118997,260.3914040632756 216.0886503448401,261.13444910081853 201.47048656489994,261.09855163288046 187.68348381984922,260.31785436283116 174.9651514810081,258.84915076622264 163.53402778826097,256.77025140488803 153.58550584501202,254.177832459536 145.2881146752384,251.18481787987673" stroke="black" stroke-linecap="round" stroke-width="1" /><polyline clip-path="url(#border_clip)" fill="none" points="145.2881146752384,251.18481787987673 138.78033094808876,247.91735725877064 134.16798596591715,244.5114708414349 131.52232014415873,241.10944077481489 130.87872374932485,237.856033613895 132.2361883913131,234.8946430984373 135.55747899210306,232.36344420518026 140.7700209893366,230.39164942099626 147.7674826987565,229.0959560713403 156.41201836953616,228.57726942032545 166.53712382695954,228.91778022316413 177.9510439971607,230.17846759020048 190.4406603155919,232.3970885856283 203.77577627316538,235.5867051403923 217.71371135678663,239.7347868462072 232.00410756164138,244.80291528070853 246.393848617102,250.72710197742327 260.6319901584039,257.4187182975506 274.47459932844043,264.76602159005324 287.68940469774986,272.63624844967075 300.0601618893796,280.8782329006422 311.39064678721536,289.32549523608844 321.5081965472169,297.7997362991636 330.2667286369383,306.1146624474245 337.5491795803203,314.0800585112968 343.269317731888,321.50601992097506 347.3728979717473,328.20725097450935 349.838140405444,334.0073340520138 350.67552966324877,338.7428745013408 349.92694590797066,342.26742793804215 347.66415286582674,344.45512077995227 343.98668178542476,345.2038808921199 339.0191629138127,344.43820312549826 332.9081675843896,342.1113841264549 325.81863409403655,338.2071718702788 317.92995899235683,332.74078769413165 309.4318420367405,325.75929190929145 300.5199777452754,317.34127807304304 291.39168911033437,307.59589539534323 282.2415995687816,296.66121323330515 273.25743775581947,284.701955873967 264.61606594003274,271.9066495133777 256.4798174335634,258.4842362093927" stroke="black" stroke-linecap="round" stroke-width="1" /><polyline clip-path="url(#border_clip)" fill="none" points="256.4798174335634,258.4842362093927 248.9932208228681,244.6602213358902 242.28017974150214,230.6724314401676 236.44166631246642,216.76646817507446 231.5539745611762,203.19095094922514 227.6675673049319,190.19264595710442 224.80653654541388,178.0115822026243 222.96868352617747,166.87625594568087 222.12621067424377,156.99902365841473 222.2270039316701,148.5717800996115 223.1964708018475,141.7620125714485 224.9398870763897,136.70931492665846 227.34519394346339,133.5224356023739 230.28617725436283,132.27692306452485 233.6259523592562,133.0134197834461 237.22067129787678,135.73664248681325 240.92336439043729,140.4150722338553 244.5878255203859,146.9813631267311 248.0724496920211,155.33346353434823 251.2439327954322,165.33642886890695 253.98074688626724,176.8248905422147 256.17630961123433,189.60613204464556 257.7417735617911,203.4637104263657 258.6083701575835,218.16155008820436 258.72925295045695,233.4484259508489 258.0807967694163,249.06274497559698 256.6633216394957,264.73752883011105 254.50122362410002,280.20549635984673 251.64250836640306,295.2041425275667 248.1577368371009,309.4807106613521 244.13840632706376,322.796957200904 239.69480275234116,334.93361260128387 234.95337257463328,345.6944485457684 230.05367380916732,354.90986999510113 225.14497544371307,362.4399606787471 220.38258290592233,368.1769221980952 215.9239738037452,372.0468597135259 211.92483287574768,374.0108809522179 208.53507781635756,374.06548970647657 205.89496832067937,372.24226978425213 204.13138930495194,368.60687020806336 203.35439582796738,363.2573170189915 203.65410183689977,356.3216910183344" stroke="black" stroke-linecap="round" stroke-width="1" /><polyline clip-path="url(#border_clip)" fill="none" points="203.65410183689977,356.3216910183344 205.09798760262862,347.9552238735421 207.72869175051216,338.3368769492773 211.56234332611697,327.66547774636285 216.5874775886238,316.15549771935684 222.76456645309355,304.0325623115016 230.02618098511155,291.5287891473563 238.27778938312682,278.8780533547902 247.39917977118228,266.31127989027357 257.24648317764337,254.05186150176996 267.654758600997,242.311297615481 278.4410893591795,231.28514405523347 289.40812826540133,221.14935621913781 300.3480188299476,212.05709931100913 311.04661088479475,204.13608865501615 321.2878819638628,197.4865112451697 330.85847060659904,192.17956675845625 339.55222460565443,188.2566525756309 347.1746661662411,185.72920320676698 353.5472770155602,184.5791802187968 358.51150967951355,184.76019462126843 361.93243636897876,186.1992299919655 363.7019540828567,188.79892171260224 363.7414734911756,192.44033581587732 362.0040297208611,196.98618037471448 358.4757651062989,202.28437331955888 353.17674703310746,208.1718832432927 346.1610979182368,214.47875430082797 337.5164288353644,221.03222284550327 327.36258300177076,227.66083203705404 315.84970997585697,234.19845133088515 303.15570565861844,240.48811049465522 289.48306674092555,246.38556252958273 275.05522079907206,251.76249649048742 260.11240454219757,256.5093295492319 244.907172512031,260.53751754188556 229.6996266151014,263.78133445785363 214.75246305390198,266.1990836178895 200.32593738074385,267.7737163725859 186.6728504338829,268.51284774171324 174.03365778311021,268.4481722049547 162.63180301102182,267.6342965394259 152.66937073283998,266.1470198747312" stroke="black" stroke-linecap="round" stroke-width="1" /><polyline clip-path="url(#border_clip)" fill="none" points="152.66937073283998,266.1470198747312 144.32314880373332,264.0811037074143 137.74118081349096,261.54758620451844 133.03987990029097,258.67070547352046 130.30176334126492,255.5845053536567 129.57385454306245,252.42920449473738 130.86678523323718,249.34741487399907 134.1546161367978,246.48029933986868 139.3753795204115,243.96375918725636 146.4323320164691,241.9247421304697 155.19589141893826,240.47775836078665 165.50621698562054,239.72168771503533 177.176379487926,239.73695444195408 189.99605510178299,240.583137779005 203.7356664893085,242.29707672649477 218.1508853076416,244.891516245567 232.987403091028,248.35432985879635 247.98587213775525,252.64834056793075 262.88691480526825,257.7117484123018 277.4360985402959,263.4591591750294 291.38877506539563,269.7831950092047 304.51468538166944,276.55665440817404 316.60223755622644,283.63517628018855 327.46237152461237,290.8603511907113 336.93193419344755,298.06321236740246 344.87649877919216,305.06803005840834 351.19257433355097,311.6963254974209 355.8091645238851,317.7710152260637 358.6886486741587,323.12059298250296 359.8269725273551,327.5832548688783 359.25315085229045,331.0108740985588 357.0280985708606,333.27273429099273 353.2428212134737,334.2589349750692 348.016008918032,333.8833895849182 341.4910905848714,332.0863446459038 333.83281592260084,328.8363588746641 325.2234427319919,324.13169234114036 315.85861467438036,318.0010684173134 305.94302079246694,310.50378469572104 295.68593207102407,301.7291631098033 285.2967122626627,291.79534382314455 274.9804000246831,280.8474417642566 264.9334571284173,269.05509865596326" stroke="black" stroke-linecap="round" stroke-width="1" /><polyline clip-path="url(#border_clip)" fill="none" points="264.9334571284173,269.05509865596326 255.3397731694059,256.60947671861567 246.36701092672388,243.71975262244626 238.16336843641625,230.609181454124 230.85482413994228,217.51081019936086 224.54292036128416,204.6629283115405 219.3031281036171,192.30434915581708 215.1838230105024,180.66962034863218 212.2058885984875,169.98426315656167 210.3629488411278,160.46014112321438 209.62221817780411,152.29105595208682 209.9259433422128,145.64866442671305 211.19339835516007,140.6788038825706 213.32338189000055,137.49830558720166 216.19715526182932,136.1923655060986 219.68174975206324,136.812530539693 223.63356406544148,139.37534565182415 227.9021665977507,143.86169364068917 232.33421300094406,150.2168449198423 236.7773873563452,158.35121988544464 241.08427515033216,168.14185156196834 245.11607818884283,179.43452155961475 248.7460855403966,192.04652825602932 251.86282047091908,205.77003283447033 254.3727909940269,220.3759166546531 256.20278093478015,235.6180726613975 257.3016290849336,251.23804438079665 257.64145587418716,266.9699187102463 257.21830972998714,282.54537333492505 256.05221866339286,297.69877631465783 254.18664630218265,312.1722342523258 251.68736528954938,325.7204865027386 248.64077437197955,338.11554608706837" stroke="black" stroke-linecap="round" stroke-width="1" /><polyline clip-path="url(#border_clip)" fill="none" points="383.5,256.5 382.48885329243467,259.6261934352471 379.4737137256286,262.6103177017972 374.50912171345004,265.3141351799097 367.6847812583664,267.6069805714607 359.123790983209,269.36932216940716 348.98021913087655,270.49605895060387 337.43607276916805,270.8994747863481 324.69772394038307,270.5117788151622 310.99186666455006,269.2871703832333 296.5610883045494,267.2033777223409 281.6591466281827,264.26263146459036 266.54604979172,260.4920469234397 251.4830402986094,255.94340251685415 236.72758567712862,250.6923154725056 222.52847813899257,244.83682973101287 209.12114284115896,238.49544444487748 196.7232496354091,231.80462435773964 185.53071645981305,224.91584535327056 175.7141839506432,217.99223931689528 167.41603061983204,211.20491191302366 160.7479862741663,204.72901473229757 155.78938850107284,198.73965932933896 152.58611329007704,193.4077648123912 151.15019649578153,188.8959327649748 151.46014818702514,185.3544433233992 153.46194728308188,182.91746419535085 157.07068956568065,181.699560322206 162.17284848182175,181.79258584453203 168.62909540895905,183.26303215296522 176.27761451252394,186.1498962622967 184.93783723082728,190.46312273905988 194.4145129871042,196.18266017859352 204.5020261294734,203.25816003022385 214.98886447330247,211.60933169431706 225.66214226026906,221.12695356340797 236.31207990261657,231.67452536125913 246.73634455204333,243.09053306058763 256.7441592766773,255.19128413974707 266.16009435804335,267.7742582670047 274.82746180124303,280.62190695656784 282.6112434141154,293.5058255777035 289.4004935470872,306.1912125422472" stroke="black" stroke-linecap="round" stroke-width="1" /></svg>